<?xml version="1.0" encoding="utf-8" standalone="no"?>
<!DOCTYPE svg PUBLIC "-//W3C//DTD SVG 1.1//EN"
  "http://www.w3.org/Graphics/SVG/1.1/DTD/svg11.dtd">
<!-- Created with matplotlib (http://matplotlib.org/) -->
<svg height="344pt" version="1.1" viewBox="0 0 460 344" width="460pt" xmlns="http://www.w3.org/2000/svg" xmlns:xlink="http://www.w3.org/1999/xlink">
 <defs>
  <style type="text/css">
*{stroke-linecap:butt;stroke-linejoin:round;}
  </style>
 </defs>
 <g id="figure_1">
  <g id="patch_1">
   <path d="M 0 344.16 
L 460.8 344.16 
L 460.8 0 
L 0 0 
z
" style="fill:#ffffff;"/>
  </g>
  <g id="patch_2">
   <path d="M 57.6 306.3024 
L 414.72 306.3024 
L 414.72 41.2992 
L 57.6 41.2992 
z
" style="fill:#ffffff;"/>
  </g>
  <g id="pane3d_1">
   <g id="patch_3">
    <path d="M 104.941774 247.746032 
L 207.151387 182.773252 
L 205.449705 58.620933 
L 97.541237 116.99764 
" style="fill:#f2f2f2;opacity:0.5;stroke:#f2f2f2;stroke-linejoin:miter;"/>
   </g>
  </g>
  <g id="pane3d_2">
   <g id="patch_4">
    <path d="M 207.151387 182.773252 
L 372.72135 219.097229 
L 379.648599 91.201147 
L 205.449705 58.620933 
" style="fill:#e6e6e6;opacity:0.5;stroke:#e6e6e6;stroke-linejoin:miter;"/>
   </g>
  </g>
  <g id="pane3d_3">
   <g id="patch_5">
    <path d="M 104.941774 247.746032 
L 279.143747 290.051222 
L 372.72135 219.097229 
L 207.151387 182.773252 
" style="fill:#ececec;opacity:0.5;stroke:#ececec;stroke-linejoin:miter;"/>
   </g>
  </g>
  <g id="axis3d_1">
   <g id="line2d_1">
    <path d="M 104.941774 247.746032 
L 279.143747 290.051222 
" style="fill:none;stroke:#000000;stroke-linecap:square;stroke-width:0.8;"/>
   </g>
   <g id="Line3DCollection_1">
    <path d="M 115.562252 250.32523 
L 217.277438 184.994781 
L 216.081723 60.609427 
" style="fill:none;stroke:#b0b0b0;stroke-width:0.8;"/>
    <path d="M 136.546271 255.421228 
L 237.272378 189.38142 
L 237.084063 64.53747 
" style="fill:none;stroke:#b0b0b0;stroke-width:0.8;"/>
    <path d="M 157.767386 260.574805 
L 257.476798 193.814017 
L 258.317655 68.508764 
" style="fill:none;stroke:#b0b0b0;stroke-width:0.8;"/>
    <path d="M 179.229639 265.786942 
L 277.894008 198.293297 
L 279.786342 72.524027 
" style="fill:none;stroke:#b0b0b0;stroke-width:0.8;"/>
    <path d="M 200.937162 271.058645 
L 298.527385 202.820002 
L 301.494048 76.583994 
" style="fill:none;stroke:#b0b0b0;stroke-width:0.8;"/>
    <path d="M 222.894185 276.390938 
L 319.380383 207.394888 
L 323.444789 80.689415 
" style="fill:none;stroke:#b0b0b0;stroke-width:0.8;"/>
    <path d="M 245.105035 281.784873 
L 340.456525 212.01873 
L 345.642667 84.841058 
" style="fill:none;stroke:#b0b0b0;stroke-width:0.8;"/>
    <path d="M 267.574137 287.241526 
L 361.759413 216.692317 
L 368.091882 89.039708 
" style="fill:none;stroke:#b0b0b0;stroke-width:0.8;"/>
   </g>
   <g id="xtick_1">
    <g id="line2d_2">
     <path d="M 116.438581 249.762374 
L 113.806326 251.45304 
" style="fill:none;stroke:#000000;stroke-linecap:square;stroke-width:0.8;"/>
    </g>
    <g id="text_1">
     <!-- 0 -->
     <defs>
      <path d="M 31.78125 66.40625 
Q 24.171875 66.40625 20.328125 58.90625 
Q 16.5 51.421875 16.5 36.375 
Q 16.5 21.390625 20.328125 13.890625 
Q 24.171875 6.390625 31.78125 6.390625 
Q 39.453125 6.390625 43.28125 13.890625 
Q 47.125 21.390625 47.125 36.375 
Q 47.125 51.421875 43.28125 58.90625 
Q 39.453125 66.40625 31.78125 66.40625 
z
M 31.78125 74.21875 
Q 44.046875 74.21875 50.515625 64.515625 
Q 56.984375 54.828125 56.984375 36.375 
Q 56.984375 17.96875 50.515625 8.265625 
Q 44.046875 -1.421875 31.78125 -1.421875 
Q 19.53125 -1.421875 13.0625 8.265625 
Q 6.59375 17.96875 6.59375 36.375 
Q 6.59375 54.828125 13.0625 64.515625 
Q 19.53125 74.21875 31.78125 74.21875 
z
" id="DejaVuSans-30"/>
     </defs>
     <g transform="translate(105.047809 271.763997)scale(0.1 -0.1)">
      <use xlink:href="#DejaVuSans-30"/>
     </g>
    </g>
   </g>
   <g id="xtick_2">
    <g id="line2d_3">
     <path d="M 137.414426 254.852032 
L 134.806704 256.561753 
" style="fill:none;stroke:#000000;stroke-linecap:square;stroke-width:0.8;"/>
    </g>
    <g id="text_2">
     <!-- 1 -->
     <defs>
      <path d="M 12.40625 8.296875 
L 28.515625 8.296875 
L 28.515625 63.921875 
L 10.984375 60.40625 
L 10.984375 69.390625 
L 28.421875 72.90625 
L 38.28125 72.90625 
L 38.28125 8.296875 
L 54.390625 8.296875 
L 54.390625 0 
L 12.40625 0 
z
" id="DejaVuSans-31"/>
     </defs>
     <g transform="translate(126.029376 276.947317)scale(0.1 -0.1)">
      <use xlink:href="#DejaVuSans-31"/>
     </g>
    </g>
   </g>
   <g id="xtick_3">
    <g id="line2d_4">
     <path d="M 158.627127 259.999162 
L 156.044661 261.728261 
" style="fill:none;stroke:#000000;stroke-linecap:square;stroke-width:0.8;"/>
    </g>
    <g id="text_3">
     <!-- 2 -->
     <defs>
      <path d="M 19.1875 8.296875 
L 53.609375 8.296875 
L 53.609375 0 
L 7.328125 0 
L 7.328125 8.296875 
Q 12.9375 14.109375 22.625 23.890625 
Q 32.328125 33.6875 34.8125 36.53125 
Q 39.546875 41.84375 41.421875 45.53125 
Q 43.3125 49.21875 43.3125 52.78125 
Q 43.3125 58.59375 39.234375 62.25 
Q 35.15625 65.921875 28.609375 65.921875 
Q 23.96875 65.921875 18.8125 64.3125 
Q 13.671875 62.703125 7.8125 59.421875 
L 7.8125 69.390625 
Q 13.765625 71.78125 18.9375 73 
Q 24.125 74.21875 28.421875 74.21875 
Q 39.75 74.21875 46.484375 68.546875 
Q 53.21875 62.890625 53.21875 53.421875 
Q 53.21875 48.921875 51.53125 44.890625 
Q 49.859375 40.875 45.40625 35.40625 
Q 44.1875 33.984375 37.640625 27.21875 
Q 31.109375 20.453125 19.1875 8.296875 
z
" id="DejaVuSans-32"/>
     </defs>
     <g transform="translate(147.248453 282.189313)scale(0.1 -0.1)">
      <use xlink:href="#DejaVuSans-32"/>
     </g>
    </g>
   </g>
   <g id="xtick_4">
    <g id="line2d_5">
     <path d="M 180.080717 265.204742 
L 177.524252 266.953551 
" style="fill:none;stroke:#000000;stroke-linecap:square;stroke-width:0.8;"/>
    </g>
    <g id="text_4">
     <!-- 3 -->
     <defs>
      <path d="M 40.578125 39.3125 
Q 47.65625 37.796875 51.625 33 
Q 55.609375 28.21875 55.609375 21.1875 
Q 55.609375 10.40625 48.1875 4.484375 
Q 40.765625 -1.421875 27.09375 -1.421875 
Q 22.515625 -1.421875 17.65625 -0.515625 
Q 12.796875 0.390625 7.625 2.203125 
L 7.625 11.71875 
Q 11.71875 9.328125 16.59375 8.109375 
Q 21.484375 6.890625 26.8125 6.890625 
Q 36.078125 6.890625 40.9375 10.546875 
Q 45.796875 14.203125 45.796875 21.1875 
Q 45.796875 27.640625 41.28125 31.265625 
Q 36.765625 34.90625 28.71875 34.90625 
L 20.21875 34.90625 
L 20.21875 43.015625 
L 29.109375 43.015625 
Q 36.375 43.015625 40.234375 45.921875 
Q 44.09375 48.828125 44.09375 54.296875 
Q 44.09375 59.90625 40.109375 62.90625 
Q 36.140625 65.921875 28.71875 65.921875 
Q 24.65625 65.921875 20.015625 65.03125 
Q 15.375 64.15625 9.8125 62.3125 
L 9.8125 71.09375 
Q 15.4375 72.65625 20.34375 73.4375 
Q 25.25 74.21875 29.59375 74.21875 
Q 40.828125 74.21875 47.359375 69.109375 
Q 53.90625 64.015625 53.90625 55.328125 
Q 53.90625 49.265625 50.4375 45.09375 
Q 46.96875 40.921875 40.578125 39.3125 
z
" id="DejaVuSans-33"/>
     </defs>
     <g transform="translate(168.709096 287.490985)scale(0.1 -0.1)">
      <use xlink:href="#DejaVuSans-33"/>
     </g>
    </g>
   </g>
   <g id="xtick_5">
    <g id="line2d_6">
     <path d="M 201.779324 270.469774 
L 199.249625 272.238632 
" style="fill:none;stroke:#000000;stroke-linecap:square;stroke-width:0.8;"/>
    </g>
    <g id="text_5">
     <!-- 4 -->
     <defs>
      <path d="M 37.796875 64.3125 
L 12.890625 25.390625 
L 37.796875 25.390625 
z
M 35.203125 72.90625 
L 47.609375 72.90625 
L 47.609375 25.390625 
L 58.015625 25.390625 
L 58.015625 17.1875 
L 47.609375 17.1875 
L 47.609375 0 
L 37.796875 0 
L 37.796875 17.1875 
L 4.890625 17.1875 
L 4.890625 26.703125 
z
" id="DejaVuSans-34"/>
     </defs>
     <g transform="translate(190.415453 292.853358)scale(0.1 -0.1)">
      <use xlink:href="#DejaVuSans-34"/>
     </g>
    </g>
   </g>
   <g id="xtick_6">
    <g id="line2d_7">
     <path d="M 223.727169 275.795282 
L 221.225022 277.584536 
" style="fill:none;stroke:#000000;stroke-linecap:square;stroke-width:0.8;"/>
    </g>
    <g id="text_6">
     <!-- 5 -->
     <defs>
      <path d="M 10.796875 72.90625 
L 49.515625 72.90625 
L 49.515625 64.59375 
L 19.828125 64.59375 
L 19.828125 46.734375 
Q 21.96875 47.46875 24.109375 47.828125 
Q 26.265625 48.1875 28.421875 48.1875 
Q 40.625 48.1875 47.75 41.5 
Q 54.890625 34.8125 54.890625 23.390625 
Q 54.890625 11.625 47.5625 5.09375 
Q 40.234375 -1.421875 26.90625 -1.421875 
Q 22.3125 -1.421875 17.546875 -0.640625 
Q 12.796875 0.140625 7.71875 1.703125 
L 7.71875 11.625 
Q 12.109375 9.234375 16.796875 8.0625 
Q 21.484375 6.890625 26.703125 6.890625 
Q 35.15625 6.890625 40.078125 11.328125 
Q 45.015625 15.765625 45.015625 23.390625 
Q 45.015625 31 40.078125 35.4375 
Q 35.15625 39.890625 26.703125 39.890625 
Q 22.75 39.890625 18.8125 39.015625 
Q 14.890625 38.140625 10.796875 36.28125 
z
" id="DejaVuSans-35"/>
     </defs>
     <g transform="translate(212.371768 298.277482)scale(0.1 -0.1)">
      <use xlink:href="#DejaVuSans-35"/>
     </g>
    </g>
   </g>
   <g id="xtick_7">
    <g id="line2d_8">
     <path d="M 245.928571 281.182314 
L 243.454784 282.992318 
" style="fill:none;stroke:#000000;stroke-linecap:square;stroke-width:0.8;"/>
    </g>
    <g id="text_7">
     <!-- 6 -->
     <defs>
      <path d="M 33.015625 40.375 
Q 26.375 40.375 22.484375 35.828125 
Q 18.609375 31.296875 18.609375 23.390625 
Q 18.609375 15.53125 22.484375 10.953125 
Q 26.375 6.390625 33.015625 6.390625 
Q 39.65625 6.390625 43.53125 10.953125 
Q 47.40625 15.53125 47.40625 23.390625 
Q 47.40625 31.296875 43.53125 35.828125 
Q 39.65625 40.375 33.015625 40.375 
z
M 52.59375 71.296875 
L 52.59375 62.3125 
Q 48.875 64.0625 45.09375 64.984375 
Q 41.3125 65.921875 37.59375 65.921875 
Q 27.828125 65.921875 22.671875 59.328125 
Q 17.53125 52.734375 16.796875 39.40625 
Q 19.671875 43.65625 24.015625 45.921875 
Q 28.375 48.1875 33.59375 48.1875 
Q 44.578125 48.1875 50.953125 41.515625 
Q 57.328125 34.859375 57.328125 23.390625 
Q 57.328125 12.15625 50.6875 5.359375 
Q 44.046875 -1.421875 33.015625 -1.421875 
Q 20.359375 -1.421875 13.671875 8.265625 
Q 6.984375 17.96875 6.984375 36.375 
Q 6.984375 53.65625 15.1875 63.9375 
Q 23.390625 74.21875 37.203125 74.21875 
Q 40.921875 74.21875 44.703125 73.484375 
Q 48.484375 72.75 52.59375 71.296875 
z
" id="DejaVuSans-36"/>
     </defs>
     <g transform="translate(234.582384 303.764428)scale(0.1 -0.1)">
      <use xlink:href="#DejaVuSans-36"/>
     </g>
    </g>
   </g>
   <g id="xtick_8">
    <g id="line2d_9">
     <path d="M 268.387949 286.631942 
L 265.943353 288.46306 
" style="fill:none;stroke:#000000;stroke-linecap:square;stroke-width:0.8;"/>
    </g>
    <g id="text_8">
     <!-- 7 -->
     <defs>
      <path d="M 8.203125 72.90625 
L 55.078125 72.90625 
L 55.078125 68.703125 
L 28.609375 0 
L 18.3125 0 
L 43.21875 64.59375 
L 8.203125 64.59375 
z
" id="DejaVuSans-37"/>
     </defs>
     <g transform="translate(257.051745 309.315295)scale(0.1 -0.1)">
      <use xlink:href="#DejaVuSans-37"/>
     </g>
    </g>
   </g>
  </g>
  <g id="axis3d_2">
   <g id="line2d_10">
    <path d="M 372.72135 219.097229 
L 279.143747 290.051222 
" style="fill:none;stroke:#000000;stroke-linecap:square;stroke-width:0.8;"/>
   </g>
   <g id="Line3DCollection_2">
    <path d="M 104.930092 113.000391 
L 111.915028 243.313262 
L 285.548062 285.195234 
" style="fill:none;stroke:#b0b0b0;stroke-width:0.8;"/>
    <path d="M 119.187146 105.287559 
L 125.380679 234.753395 
L 297.906763 275.82441 
" style="fill:none;stroke:#b0b0b0;stroke-width:0.8;"/>
    <path d="M 133.161346 97.727747 
L 138.592634 226.354797 
L 310.022004 266.638188 
" style="fill:none;stroke:#b0b0b0;stroke-width:0.8;"/>
    <path d="M 146.861026 90.316445 
L 151.557994 218.112954 
L 321.900906 257.631165 
" style="fill:none;stroke:#b0b0b0;stroke-width:0.8;"/>
    <path d="M 160.294198 83.04932 
L 164.283602 210.023519 
L 333.55032 248.79815 
" style="fill:none;stroke:#b0b0b0;stroke-width:0.8;"/>
    <path d="M 173.468563 75.922205 
L 176.776045 202.082301 
L 344.976832 240.134147 
" style="fill:none;stroke:#b0b0b0;stroke-width:0.8;"/>
    <path d="M 186.391529 68.931093 
L 189.041673 194.285266 
L 356.186778 231.634352 
" style="fill:none;stroke:#b0b0b0;stroke-width:0.8;"/>
    <path d="M 199.070224 62.072128 
L 201.086609 186.62852 
L 367.186258 223.29414 
" style="fill:none;stroke:#b0b0b0;stroke-width:0.8;"/>
   </g>
   <g id="xtick_9">
    <g id="line2d_11">
     <path d="M 284.094906 284.844719 
L 288.457621 285.897048 
" style="fill:none;stroke:#000000;stroke-linecap:square;stroke-width:0.8;"/>
    </g>
    <g id="text_9">
     <!-- 0 -->
     <g transform="translate(295.088782 304.922352)scale(0.1 -0.1)">
      <use xlink:href="#DejaVuSans-30"/>
     </g>
    </g>
   </g>
   <g id="xtick_10">
    <g id="line2d_12">
     <path d="M 296.463505 275.480833 
L 300.796473 276.512326 
" style="fill:none;stroke:#000000;stroke-linecap:square;stroke-width:0.8;"/>
    </g>
    <g id="text_10">
     <!-- 1 -->
     <g transform="translate(307.314743 295.435674)scale(0.1 -0.1)">
      <use xlink:href="#DejaVuSans-31"/>
     </g>
    </g>
   </g>
   <g id="xtick_11">
    <g id="line2d_13">
     <path d="M 308.588537 266.301344 
L 312.892078 267.312613 
" style="fill:none;stroke:#000000;stroke-linecap:square;stroke-width:0.8;"/>
    </g>
    <g id="text_11">
     <!-- 2 -->
     <g transform="translate(319.299979 286.135785)scale(0.1 -0.1)">
      <use xlink:href="#DejaVuSans-32"/>
     </g>
    </g>
   </g>
   <g id="xtick_12">
    <g id="line2d_14">
     <path d="M 320.477125 257.300859 
L 324.751557 258.292494 
" style="fill:none;stroke:#000000;stroke-linecap:square;stroke-width:0.8;"/>
    </g>
    <g id="text_12">
     <!-- 3 -->
     <g transform="translate(331.051529 277.017224)scale(0.1 -0.1)">
      <use xlink:href="#DejaVuSans-33"/>
     </g>
    </g>
   </g>
   <g id="xtick_13">
    <g id="line2d_15">
     <path d="M 332.13612 248.474193 
L 336.381759 249.446759 
" style="fill:none;stroke:#000000;stroke-linecap:square;stroke-width:0.8;"/>
    </g>
    <g id="text_13">
     <!-- 4 -->
     <g transform="translate(342.576162 268.074739)scale(0.1 -0.1)">
      <use xlink:href="#DejaVuSans-34"/>
     </g>
    </g>
   </g>
   <g id="xtick_14">
    <g id="line2d_16">
     <path d="M 343.572108 239.816358 
L 347.789268 240.770401 
" style="fill:none;stroke:#000000;stroke-linecap:square;stroke-width:0.8;"/>
    </g>
    <g id="text_14">
     <!-- 5 -->
     <g transform="translate(353.880388 259.303277)scale(0.1 -0.1)">
      <use xlink:href="#DejaVuSans-35"/>
     </g>
    </g>
   </g>
   <g id="xtick_15">
    <g id="line2d_17">
     <path d="M 354.791427 231.322556 
L 358.98042 232.2586 
" style="fill:none;stroke:#000000;stroke-linecap:square;stroke-width:0.8;"/>
    </g>
    <g id="text_15">
     <!-- 6 -->
     <g transform="translate(364.970469 250.69798)scale(0.1 -0.1)">
      <use xlink:href="#DejaVuSans-36"/>
     </g>
    </g>
   </g>
   <g id="xtick_16">
    <g id="line2d_18">
     <path d="M 365.800177 222.98817 
L 369.961313 223.906719 
" style="fill:none;stroke:#000000;stroke-linecap:square;stroke-width:0.8;"/>
    </g>
    <g id="text_16">
     <!-- 7 -->
     <g transform="translate(375.852433 242.254169)scale(0.1 -0.1)">
      <use xlink:href="#DejaVuSans-37"/>
     </g>
    </g>
   </g>
  </g>
  <g id="axis3d_3">
   <g id="line2d_19">
    <path d="M 372.72135 219.097229 
L 379.648599 91.201147 
" style="fill:none;stroke:#000000;stroke-linecap:square;stroke-width:0.8;"/>
   </g>
   <g id="Line3DCollection_3">
    <path d="M 372.853105 216.664664 
L 207.118952 180.406842 
L 104.801255 245.263413 
" style="fill:none;stroke:#b0b0b0;stroke-width:0.8;"/>
    <path d="M 373.763718 199.852236 
L 206.894854 164.056999 
L 103.829816 228.100595 
" style="fill:none;stroke:#b0b0b0;stroke-width:0.8;"/>
    <path d="M 374.686996 182.805995 
L 206.667771 147.489342 
L 102.844418 210.691165 
" style="fill:none;stroke:#b0b0b0;stroke-width:0.8;"/>
    <path d="M 375.623203 165.521031 
L 206.437643 130.699487 
L 101.844759 193.029769 
" style="fill:none;stroke:#b0b0b0;stroke-width:0.8;"/>
    <path d="M 376.572614 147.992292 
L 206.204407 113.682937 
L 100.830527 175.110897 
" style="fill:none;stroke:#b0b0b0;stroke-width:0.8;"/>
    <path d="M 377.53551 130.214586 
L 205.968001 96.435066 
L 99.8014 156.928877 
" style="fill:none;stroke:#b0b0b0;stroke-width:0.8;"/>
    <path d="M 378.51218 112.18257 
L 205.728359 78.951128 
L 98.757047 138.477869 
" style="fill:none;stroke:#b0b0b0;stroke-width:0.8;"/>
    <path d="M 379.502921 93.890747 
L 205.485415 61.226242 
L 97.69713 119.75186 
" style="fill:none;stroke:#b0b0b0;stroke-width:0.8;"/>
   </g>
   <g id="xtick_17">
    <g id="line2d_20">
     <path d="M 371.47029 216.362144 
L 375.621611 217.270333 
" style="fill:none;stroke:#000000;stroke-linecap:square;stroke-width:0.8;"/>
    </g>
    <g id="text_17">
     <!-- 0 -->
     <g transform="translate(388.054314 222.301857)scale(0.1 -0.1)">
      <use xlink:href="#DejaVuSans-30"/>
     </g>
    </g>
   </g>
   <g id="xtick_18">
    <g id="line2d_21">
     <path d="M 372.37104 199.553491 
L 376.551992 200.450352 
" style="fill:none;stroke:#000000;stroke-linecap:square;stroke-width:0.8;"/>
    </g>
    <g id="text_18">
     <!-- 1 -->
     <g transform="translate(389.089522 205.513925)scale(0.1 -0.1)">
      <use xlink:href="#DejaVuSans-31"/>
     </g>
    </g>
   </g>
   <g id="xtick_19">
    <g id="line2d_22">
     <path d="M 373.284313 182.511159 
L 377.49532 183.396288 
" style="fill:none;stroke:#000000;stroke-linecap:square;stroke-width:0.8;"/>
    </g>
    <g id="text_19">
     <!-- 2 -->
     <g transform="translate(390.139094 188.493054)scale(0.1 -0.1)">
      <use xlink:href="#DejaVuSans-32"/>
     </g>
    </g>
   </g>
   <g id="xtick_20">
    <g id="line2d_23">
     <path d="M 374.21037 165.230243 
L 378.451869 166.103223 
" style="fill:none;stroke:#000000;stroke-linecap:square;stroke-width:0.8;"/>
    </g>
    <g id="text_20">
     <!-- 3 -->
     <g transform="translate(391.203332 171.23436)scale(0.1 -0.1)">
      <use xlink:href="#DejaVuSans-33"/>
     </g>
    </g>
   </g>
   <g id="xtick_21">
    <g id="line2d_24">
     <path d="M 375.149484 147.705697 
L 379.421917 148.566095 
" style="fill:none;stroke:#000000;stroke-linecap:square;stroke-width:0.8;"/>
    </g>
    <g id="text_21">
     <!-- 4 -->
     <g transform="translate(392.282543 153.732825)scale(0.1 -0.1)">
      <use xlink:href="#DejaVuSans-34"/>
     </g>
    </g>
   </g>
   <g id="xtick_22">
    <g id="line2d_25">
     <path d="M 376.101931 129.932332 
L 380.405754 130.779701 
" style="fill:none;stroke:#000000;stroke-linecap:square;stroke-width:0.8;"/>
    </g>
    <g id="text_22">
     <!-- 5 -->
     <g transform="translate(393.377048 135.983287)scale(0.1 -0.1)">
      <use xlink:href="#DejaVuSans-35"/>
     </g>
    </g>
   </g>
   <g id="xtick_23">
    <g id="line2d_26">
     <path d="M 377.067999 111.904811 
L 381.403675 112.73869 
" style="fill:none;stroke:#000000;stroke-linecap:square;stroke-width:0.8;"/>
    </g>
    <g id="text_23">
     <!-- 6 -->
     <g transform="translate(394.487173 117.980436)scale(0.1 -0.1)">
      <use xlink:href="#DejaVuSans-36"/>
     </g>
    </g>
   </g>
   <g id="xtick_24">
    <g id="line2d_27">
     <path d="M 378.04798 93.617643 
L 382.415984 94.437553 
" style="fill:none;stroke:#000000;stroke-linecap:square;stroke-width:0.8;"/>
    </g>
    <g id="text_24">
     <!-- 7 -->
     <g transform="translate(395.613255 99.71881)scale(0.1 -0.1)">
      <use xlink:href="#DejaVuSans-37"/>
     </g>
    </g>
   </g>
  </g>
  <g id="axes_1">
   <g id="line2d_28">
    <path clip-path="url(#pe01bc2526a)" d="M 122.380971 243.387813 
L 121.536705 226.247584 
L 135.056781 217.75838 
L 135.798341 234.794415 
L 156.611811 239.735687 
L 156.013664 222.639599 
L 142.621962 231.224294 
L 143.321088 248.425064 
L 164.496875 253.519005 
L 177.657265 244.732034 
L 198.938602 249.784381 
L 185.912332 258.670601 
L 185.513597 241.347919 
L 198.637154 232.567343 
L 177.205794 227.57561 
L 163.94623 236.257417 
L 163.3876 218.745495 
L 176.74784 210.172813 
L 198.331353 215.101655 
L 185.109047 223.772574 
L 184.698552 205.938998 
L 198.021103 197.381892 
L 176.283261 192.518298 
L 162.820809 200.977753 
L 119.811592 191.224496 
L 120.680332 208.861586 
L 141.912754 213.775488 
L 155.406975 205.299383 
L 134.304691 200.480436 
L 133.541846 182.955393 
L 154.791561 187.709775 
L 168.125774 179.508742 
L 147.006919 174.845996 
L 147.667766 192.260018 
L 168.640968 196.986737 
L 181.622186 188.832865 
L 160.777 184.195751 
L 160.214421 166.891723 
L 202.426975 176.090268 
L 189.482774 184.224068 
L 211.08197 188.992866 
L 223.88879 180.767016 
L 224.009864 198.262211 
L 211.295802 206.599833 
L 189.848991 201.766377 
L 202.698519 193.521398 
L 202.966264 210.708733 
L 190.210037 219.060977 
L 211.506597 223.956787 
L 224.129236 215.51136 
L 224.246941 232.51962 
L 211.714421 241.069015 
L 190.566021 236.113075 
L 203.230292 227.657355 
L 182.442204 222.847968 
L 182.035046 205.958699 
L 169.148927 214.219293 
L 169.649803 231.211545 
L 148.961963 226.363533 
L 148.319383 209.430843 
L 161.331796 201.260399 
L 161.87897 218.090601 
L 187.000348 202.001157 
L 207.317479 206.584697 
L 194.995889 214.640461 
L 194.679044 197.853317 
L 207.087681 189.898812 
L 186.633849 185.373338 
L 174.101034 193.242644 
L 173.639559 176.283229 
L 194.357803 180.833261 
L 194.032074 163.575412 
L 173.171672 159.088164 
L 185.885718 151.431077 
L 206.618545 155.834268 
L 206.854725 172.983589 
L 186.26234 168.518209 
L 198.651987 160.896604 
L 219.1196 165.279673 
L 218.969704 148.237849 
L 198.363342 143.916376 
L 210.611079 136.540125 
L 231.092089 140.782136 
L 231.15883 157.71749 
L 210.814898 153.414477 
L 211.21444 186.492801 
L 199.217705 194.176328 
L 198.936748 177.648395 
L 219.267468 182.09101 
L 219.41335 198.676506 
L 231.289648 190.91187 
L 231.224678 174.425891 
L 251.6477 178.834169 
L 251.576362 195.377497 
L 239.823728 203.224533 
L 239.815827 186.581184 
L 260.585338 191.119683 
L 260.452283 207.821176 
L 272.077941 199.890422 
L 272.501924 166.462106 
L 251.720006 162.066453 
L 251.793299 145.069754 
L 272.718281 149.40372 
L 260.856981 157.022261 
L 239.799697 152.606222 
L 239.807817 169.709984 
L 260.720225 174.188304 
L 248.715293 182.060894 
L 227.671151 177.497552 
L 227.578511 160.285697 
L 248.769368 164.786163 
L 236.448902 172.699627 
L 215.123201 168.11229 
L 215.303602 185.433267 
L 236.480724 190.084075 
L 236.512103 207.226358 
L 248.661965 199.097252 
L 227.762519 194.473184 
L 215.481503 202.514279 
L 215.656957 219.360279 
L 227.852642 211.217426 
L 248.609368 215.900138 
L 236.543047 224.131502 
L 257.657857 228.954973 
L 269.59126 220.633648 
L 290.802003 225.418787 
L 279.005162 233.831555 
L 279.272902 216.807267 
L 291.149481 208.497747 
L 269.789699 203.771829 
L 257.774616 211.990399 
L 257.893023 194.786531 
L 279.544439 199.541501 
L 279.819855 182.029083 
L 258.013112 177.338269 
L 270.194952 169.33648 
L 291.859186 173.93748 
L 291.501841 191.338993 
L 269.99091 186.67443 
L 281.860487 178.715419 
L 303.232348 183.29213 
L 303.668467 166.000493 
L 282.145296 161.486751 
L 293.870682 153.784789 
L 315.25423 158.213732 
L 314.742359 175.396522 
L 293.508157 170.905205 
L 292.797817 204.4514 
L 281.302532 212.467219 
L 281.579592 195.707292 
L 302.802256 200.344813 
L 302.378067 217.163462 
L 313.739497 209.061202 
L 314.237495 192.34408 
L 335.55293 196.944983 
L 334.906559 213.720617 
L 323.682561 221.910724 
L 324.257079 205.033065 
L 345.947889 209.772884 
L 345.219764 226.70984 
L 356.302663 218.430449 
L 357.909672 184.526986 
L 336.20826 179.936847 
L 336.872735 162.69134 
L 358.73009 167.218418 
L 347.435092 175.179033 
L 325.4304 170.564308 
L 324.839635 187.919256 
L 346.68626 192.597636 
L 335.245436 200.824625 
L 313.252012 196.055435 
L 313.766078 178.590016 
L 335.91973 183.294958 
L 324.177492 191.570782 
L 301.873246 186.772952 
L 301.438999 204.349869 
L 323.580822 209.212539 
L 322.992649 226.603036 
L 334.580653 218.10703 
L 312.745156 213.275858 
L 301.010902 221.677845 
L 300.588826 238.762131 
L 312.245361 230.256404 
L 333.925182 235.147367 
L 310.676241 252.515301 
L 288.706586 247.432555 
L 289.047814 230.243683 
L 311.177384 235.265665 
L 299.128104 244.099866 
L 276.849131 238.978211 
L 276.592022 256.272505 
L 298.708908 261.455401 
L 286.503922 270.573038 
L 286.83779 253.110788 
L 274.299133 262.303787 
L 274.054133 279.873553 
L 251.638121 274.481269 
L 251.716585 256.973674 
L 264.407825 247.886463 
L 264.238252 265.287003 
L 242.224971 260.060886 
L 242.233955 242.721788 
L 229.394448 251.705026 
L 229.478721 269.150714 
L 207.571552 263.880835 
L 207.328244 246.496785 
L 220.311819 237.615745 
L 220.459812 254.893676 
L 245.495942 237.435641 
L 266.98117 242.406314 
L 254.723401 251.147788 
L 254.822038 233.91446 
L 267.166009 225.277927 
L 245.527832 220.367459 
L 233.042577 228.907637 
L 232.985456 211.488019 
L 245.560176 203.056183 
L 267.353495 207.904213 
L 254.922101 216.431869 
L 255.023622 198.694565 
L 267.543686 190.279863 
L 245.592984 185.496581 
L 220.009339 202.30151 
L 220.161677 220.086859 
L 207.081367 228.857713 
L 206.830841 210.957966 
L 229.222143 216.035671 
L 229.308931 234.001925 
L 242.243071 225.129397 
L 242.25232 207.278123 
L 264.754501 212.31273 
L 264.579889 230.230265 
L 251.796213 239.206244 
L 251.877032 221.173151 
L 274.80019 226.371466 
L 274.547792 244.47173 
L 287.176591 235.390479 
L 287.520437 217.406349 
L 299.985033 208.621413 
L 277.374652 203.629358 
L 277.10998 221.432339 
L 299.553434 226.490408 
L 311.685787 217.766147 
L 289.393956 212.807221 
L 289.745121 195.117782 
L 312.201608 200.011279 
L 312.725011 181.99543 
L 290.101417 177.169819 
L 290.46296 158.957625 
L 313.256165 163.712803 
L 300.867598 172.081516 
L 277.915803 167.229131 
L 277.64323 185.563577 
L 300.42304 190.4871 
L 287.86944 199.15246 
L 288.223718 180.622699 
L 275.31655 189.341737 
L 275.056414 207.996896 
L 251.959068 202.868391 
L 252.04235 184.285779 
L 265.111593 175.670095 
L 264.931716 194.128014 
L 242.261707 189.16221 
L 242.271234 170.775728 
L 229.044638 179.289882 
L 229.134055 197.800354 
L 206.576585 192.791722 
L 206.318515 174.352985 
L 219.697876 165.938575 
L 219.854755 184.254028 
L 245.626266 167.683274 
L 267.736641 172.399415 
L 255.126633 180.696943 
L 255.231167 162.433228 
L 267.93242 154.257245 
L 245.660032 149.610721 
L 232.809054 157.692827 
L 232.748511 139.230025 
L 245.694293 131.273223 
L 268.131086 135.847565 
L 255.337258 143.897477 
L 255.444941 125.083564 
L 268.332703 117.164414 
L 245.729061 112.664909 
L 219.377024 128.479522 
L 219.53865 147.349138 
L 206.056545 155.635577 
L 205.790586 136.633134 
L 228.861694 141.418185 
L 228.953862 160.497982 
L 242.280905 152.11257 
L 242.290722 133.166444 
L 265.479579 137.909649 
L 265.294194 156.932771 
L 252.126906 165.41894 
L 252.212765 146.261303 
L 275.848924 151.163549 
L 275.580689 170.399514 
L 288.583391 161.810762 
L 288.948583 142.710156 
L 301.77697 134.43182 
L 278.473292 129.729916 
L 278.192459 148.619985 
L 301.318858 153.398529 
L 313.795243 145.157429 
L 290.829864 140.47532 
L 291.20225 121.71685 
L 314.342424 126.323158 
L 338.71622 110.594408 
L 315.897624 106.170751 
L 303.674464 113.865409 
L 303.214242 132.493728 
L 315.353117 124.67036 
L 338.001764 129.168153 
L 326.020374 137.082291 
L 325.397075 155.511387 
L 302.760728 150.850524 
L 302.313776 168.94169 
L 324.782846 173.67228 
L 336.60374 165.512683 
L 314.287511 160.874335 
L 314.816469 142.902975 
L 337.297679 147.472302 
L 348.965044 139.590775 
L 326.63726 135.110314 
L 326.029548 152.963087 
L 348.19461 157.511866 
L 359.562103 149.665237 
L 337.546549 145.203458 
L 338.2299 127.468056 
L 360.405959 131.862218 
L 362.130221 95.485028 
L 350.539616 102.964606 
L 349.746631 121.410246 
L 327.253718 117.000557 
L 327.879115 98.628227 
L 339.626036 91.233368 
L 338.922993 109.479841 
L 316.833378 105.203948 
L 317.374791 87.029496 
L 305.475815 94.341066 
L 305.014277 112.640559 
L 283.024047 108.32942 
L 283.325362 90.102291 
L 295.372246 82.87261 
L 294.610955 118.825009 
L 316.299587 123.122588 
L 315.773256 140.790778 
L 294.238246 136.426389 
L 282.434103 144.016303 
L 304.11074 148.464845 
L 304.559298 130.679984 
L 282.726991 126.298949 
L 270.611772 133.918329 
L 292.58926 138.385274 
L 292.221622 156.288019 
L 270.401885 151.752865 
L 258.134919 159.640369 
L 280.099234 164.264688 
L 280.382662 146.242841 
L 258.258481 141.687434 
L 258.383837 123.473911 
L 270.824674 115.82746 
L 292.962212 120.223752 
L 280.670227 127.957903 
L 280.962021 109.40407 
L 293.340594 101.797802 
L 271.04066 97.474693 
L 258.511025 104.994086 
L 236.316988 100.634576 
L 248.993449 93.200578 
L 227.194691 88.974629 
L 214.375522 96.324677 
L 214.566465 114.657915 
L 227.292692 107.182448 
L 248.936228 111.480635 
L 236.35068 119.04087 
L 236.38389 137.183417 
L 214.754688 132.729927 
L 214.940248 150.546256 
L 236.416627 155.067846 
L 248.824204 147.268022 
L 227.484573 142.832656 
L 227.389309 125.133323 
L 248.879819 129.501289 
L 261.136259 121.966391 
L 239.783116 117.681509 
L 239.791464 135.265056 
L 260.995646 139.61664 
L 272.937629 132.109503 
L 251.8676 127.839349 
L 251.94293 110.370385 
L 273.160031 114.574531 
L 273.614254 78.761928 
L 261.4235 85.911087 
L 261.278863 104.066321 
L 239.774651 99.850464 
L 239.766066 81.766657 
L 252.096762 74.696682 
L 252.01931 92.657872 
L 230.886311 88.567152 
L 230.815803 70.676123 
L 218.348992 77.668223 
L 218.507428 95.681068 
L 197.473299 91.55737 
L 197.168299 73.615024 
L 209.767498 66.69952 
L 210.195065 102.09809 
L 230.955848 106.211817 
L 231.024434 123.615173 
L 210.404487 119.436235 
L 198.070735 126.703006 
L 218.81774 130.960767 
L 218.663662 113.443521 
L 197.774081 109.251661 
L 185.116704 116.541377 
L 206.136242 120.813617 
L 206.379074 138.445954 
L 185.503876 134.107119 
L 172.697239 141.652503 
L 193.701762 146.074751 
L 193.36677 128.326117 
L 172.21612 123.971162 
L 171.728174 106.038909 
L 184.724091 98.728753 
L 205.889978 102.932085 
L 193.026997 110.324203 
L 192.682341 92.063548 
L 205.640209 84.796035 
L 184.325921 80.664006 
L 157.88291 95.178162 
L 158.478317 113.491906 
L 144.967002 121.091971 
L 144.267207 102.65161 
L 165.989469 107.034437 
L 166.535204 125.54855 
L 179.911247 117.861584 
L 179.467991 99.474911 
L 201.301158 103.821044 
L 187.963904 111.468144 
L 210.194929 115.953623 
L 223.386714 108.217418 
L 223.514977 126.751374 
L 210.421587 134.616674 
L 188.351958 130.056486 
L 201.588731 122.28112 
L 201.872166 140.475582 
L 188.734374 148.374719 
L 210.644932 153.006969 
L 223.641385 145.017133 
L 223.765976 163.020476 
L 210.865036 171.130445 
L 189.111273 166.428687 
L 202.151552 158.410121 
L 159.643895 149.343242 
L 159.065251 131.545092 
L 180.348162 135.985188 
L 167.073054 143.795162 
L 145.656744 139.267403 
L 146.336646 157.183576 
L 167.603189 161.780029 
L 154.167232 169.865353 
L 132.768012 165.177912 
L 131.98295 147.1425 
L 153.533792 151.760542 
L 139.722412 159.886015 
L 118.03592 155.174961 
L 118.930213 173.330834 
L 162.245677 182.948544 
L 175.811914 174.606563 
L 197.706306 179.40247 
L 184.281982 187.841457 
L 183.859199 169.474047 
L 197.386863 161.157638 
L 175.333649 156.431945 
L 161.662019 164.652054 
L 161.069644 146.082295 
L 174.848314 137.988615 
L 197.062669 142.641477 
L 183.430065 150.830686 
L 182.994435 131.905109 
L 196.733618 123.847888 
L 174.355748 119.270568 
L 160.468354 127.233098 
L 138.207573 122.616112 
L 138.970616 141.389412 
L 152.891041 133.389599 
L 152.238772 114.746613 
L 130.378153 110.275096 
L 131.186415 128.843501 
L 117.128424 136.75107 
L 116.207433 118.053183 
L 116.207433 118.053183 
" style="fill:none;stroke:#1f77b4;stroke-linecap:square;stroke-width:1.5;"/>
   </g>
  </g>
 </g>
 <defs>
  <clipPath id="pe01bc2526a">
   <rect height="265.0032" width="357.12" x="57.6" y="41.2992"/>
  </clipPath>
 </defs>
</svg>
